<svg xmlns="http://www.w3.org/2000/svg" width="512" height="512" viewBox="0 0 512 512" fill="none">
  <rect width="512" height="512" rx="132" fill="#04141A"/>
  <rect x="36" y="36" width="440" height="440" rx="110" fill="url(#bg)"/>
  <path d="M163 132H246C314.483 132 370 187.517 370 256C370 324.483 314.483 380 246 380H163V132Z" fill="#021B22" fill-opacity=".42"/>
  <path d="M182 151H250.5C309.871 151 358 199.129 358 258.5C358 317.871 309.871 366 250.5 366H182V151Z" stroke="#D7FFFB" stroke-opacity=".28" stroke-width="10"/>
  <path d="M216 192H258C294.451 192 324 221.549 324 258C324 294.451 294.451 324 258 324H216V192Z" fill="#D7FFFB"/>
  <path d="M265 192H318L242 324H189L265 192Z" fill="#16A394"/>
  <circle cx="360" cy="162" r="36" fill="#F59E0B"/>
  <path d="M360 142V182" stroke="#04141A" stroke-width="14" stroke-linecap="round"/>
  <path d="M340 162H380" stroke="#04141A" stroke-width="14" stroke-linecap="round"/>
  <defs>
    <linearGradient id="bg" x1="58" y1="48" x2="454" y2="472" gradientUnits="userSpaceOnUse">
      <stop stop-color="#0EA5A6"/>
      <stop offset=".54" stop-color="#0F766E"/>
      <stop offset="1" stop-color="#0B3B45"/>
    </linearGradient>
  </defs>
</svg>
