<svg xmlns="http://www.w3.org/2000/svg" width="192" height="192" viewBox="0 0 192 192" fill="none">
  <rect width="192" height="192" rx="44" fill="#04141A"/>
  <rect x="16" y="16" width="160" height="160" rx="36" fill="url(#bg)"/>
  <path d="M61 53H91C115.853 53 136 73.1472 136 98V98C136 122.853 115.853 143 91 143H61V53Z" fill="#021B22" fill-opacity=".42"/>
  <path d="M68 60H93.5C114.763 60 132 77.237 132 98.5C132 119.763 114.763 137 93.5 137H68V60Z" stroke="#D7FFFB" stroke-opacity=".28" stroke-width="3"/>
  <path d="M81 75H96.5C109.479 75 120 85.5213 120 98.5C120 111.479 109.479 122 96.5 122H81V75Z" fill="#D7FFFB"/>
  <path d="M99 75L118 75L91 122H72L99 75Z" fill="#16A394"/>
  <circle cx="134" cy="58" r="14" fill="#F59E0B"/>
  <path d="M134 50V66" stroke="#04141A" stroke-width="5" stroke-linecap="round"/>
  <path d="M126 58H142" stroke="#04141A" stroke-width="5" stroke-linecap="round"/>
  <defs>
    <linearGradient id="bg" x1="24" y1="18" x2="172" y2="176" gradientUnits="userSpaceOnUse">
      <stop stop-color="#0EA5A6"/>
      <stop offset=".54" stop-color="#0F766E"/>
      <stop offset="1" stop-color="#0B3B45"/>
    </linearGradient>
  </defs>
</svg>
